<svg width="199" height="45" viewBox="0 0 199 45" fill="none" xmlns="http://www.w3.org/2000/svg">
<path d="M64.4884 41.5558V22.6129C64.4884 22.6129 49.8756 24.4762 37.2938 30.7152C24.7121 24.4762 10.0992 22.6129 10.0992 22.6129V41.5558C5.81129 42.5157 2.34144 43.6732 0 45C7.89884 42.5157 21.6372 40.8501 37.2656 40.8501C52.894 40.8501 66.6324 42.4875 74.5312 45C72.218 43.6732 68.7764 42.5157 64.4884 41.5558Z" fill="#1C1D4E"/>
<path d="M14.0768 20.5803V23.2622C19.2675 24.2503 28.7461 26.4523 37.2938 30.7151C27.1946 22.7823 14.0768 20.5803 14.0768 20.5803Z" fill="#313273"/>
<path d="M60.539 20.5803C60.539 20.5803 47.4213 22.7823 37.3221 30.7151C45.8697 26.4805 55.3483 24.2503 60.539 23.2622V20.5803Z" fill="#313273"/>
<path d="M37.3221 20.8344C36.7861 22.0201 35.968 23.0646 35.0088 23.8833L37.2938 27.8639L39.6353 23.8833C38.6479 23.0646 37.858 22.0201 37.3221 20.8344Z" fill="#313274"/>
<path d="M30.3824 17.8701C31.9057 17.8701 33.1752 16.628 33.1752 15.0753C33.1752 13.5508 31.9339 12.2804 30.3824 12.2804C28.859 12.2804 27.5896 13.5226 27.5896 15.0753C27.5896 16.628 28.8308 17.8701 30.3824 17.8701ZM29.4514 13.1274C30.0438 13.1274 30.5234 13.6073 30.5234 14.2001C30.5234 14.793 30.0438 15.2729 29.4514 15.2729C28.859 15.2729 28.3794 14.793 28.3794 14.2001C28.3794 13.6073 28.859 13.1274 29.4514 13.1274Z" fill="#313274"/>
<path d="M41.4408 15.0753C41.4408 16.5997 42.682 17.8701 44.2053 17.8701C45.7287 17.8701 46.9981 16.628 46.9981 15.0753C46.9981 13.5508 45.7569 12.2804 44.2053 12.2804C42.7102 12.3087 41.4408 13.5508 41.4408 15.0753ZM44.5439 14.2001C44.5439 14.793 44.0643 15.2729 43.4719 15.2729C42.8795 15.2729 42.3999 14.793 42.3999 14.2001C42.3999 13.6073 42.8795 13.1274 43.4719 13.1274C44.0643 13.1274 44.5439 13.6073 44.5439 14.2001Z" fill="#313274"/>
<path d="M25.0506 20.5521C26.4329 21.9071 28.323 22.7258 30.3824 22.7258C33.4291 22.7258 36.0808 20.9191 37.3221 18.3218C38.5351 20.9191 41.1869 22.7258 44.2618 22.7258C46.3493 22.7258 48.2112 21.8789 49.5935 20.5521C50.1859 21.399 50.6937 22.3024 51.1168 23.234C52.8377 22.5847 54.4174 22.1048 55.7997 21.7095C54.897 19.8463 53.4865 18.1807 51.7092 16.7691C51.8221 16.2327 51.9067 15.6399 51.9067 15.0753C51.9067 13.946 51.6528 12.8733 51.2015 11.8852C50.6655 10.3043 49.8474 8.83626 48.8036 7.53764L48.7472 0L42.4845 2.93601C40.8483 2.31493 39.0993 2.00439 37.3221 2.00439C35.5448 2.00439 33.7958 2.31493 32.1596 2.93601L25.8687 0L25.8123 7.53764C24.7967 8.83626 23.9787 10.276 23.4427 11.8287C22.9913 12.8168 22.7092 13.9178 22.7092 15.0753C22.7092 15.6681 22.7656 16.2327 22.9067 16.7691C21.1294 18.1807 19.7471 19.8463 18.8444 21.7095C20.1985 22.1048 21.8065 22.6129 23.5273 23.234C23.9504 22.3024 24.4582 21.399 25.0506 20.5521ZM50.2705 15.0753C50.2705 18.4065 47.5624 21.1167 44.2336 21.1167C40.9048 21.1167 38.1966 18.4065 38.1966 15.0753C38.1966 11.744 40.9048 9.03387 44.2336 9.03387C47.5624 9.0621 50.2705 11.7723 50.2705 15.0753ZM37.2939 3.61355C41.1304 3.61355 44.6285 5.27917 47.0264 7.9611C46.1518 7.62233 45.1927 7.42472 44.2053 7.42472C41.1586 7.42472 38.5069 9.23149 37.2656 11.8287C36.0526 9.23149 33.4008 7.42472 30.3259 7.42472C29.3386 7.42472 28.3794 7.62233 27.5331 7.9611C29.9874 5.27917 33.4573 3.61355 37.2939 3.61355ZM30.3824 9.06211C33.7112 9.06211 36.4193 11.7723 36.4193 15.1035C36.4193 18.4347 33.7112 21.1449 30.3824 21.1449C27.0536 21.1449 24.3454 18.4347 24.3454 15.1035C24.3454 11.7723 27.0536 9.06211 30.3824 9.06211Z" fill="#313274"/>
<path d="M91.1473 35.352C89.0353 35.352 87.2326 34.9467 85.7393 34.136C84.2673 33.3253 83.1473 32.1093 82.3793 30.488C81.6113 28.8667 81.2273 26.8187 81.2273 24.344C81.2273 20.696 82.0699 17.944 83.7552 16.088C85.4619 14.232 87.9259 13.304 91.1473 13.304C93.2806 13.304 95.0833 13.7093 96.5553 14.52C98.0273 15.3307 99.1473 16.5573 99.9153 18.2C100.705 19.8213 101.099 21.8693 101.099 24.344C101.099 27.9707 100.246 30.712 98.5393 32.568C96.8539 34.424 94.3899 35.352 91.1473 35.352ZM91.1473 32.312C92.5766 32.312 93.7499 32.0453 94.6673 31.512C95.6059 30.9573 96.2993 30.0933 96.7473 28.92C97.2166 27.7467 97.4513 26.2107 97.4513 24.312C97.4513 22.4347 97.2166 20.92 96.7473 19.768C96.2993 18.5947 95.6059 17.7413 94.6673 17.208C93.7499 16.6533 92.5766 16.376 91.1473 16.376C89.7393 16.376 88.5659 16.6533 87.6273 17.208C86.6886 17.7627 85.9846 18.6267 85.5153 19.8C85.0673 20.952 84.8433 22.4667 84.8433 24.344C84.8433 26.2213 85.0673 27.7467 85.5153 28.92C85.9846 30.0933 86.6886 30.9573 87.6273 31.512C88.5659 32.0453 89.7393 32.312 91.1473 32.312ZM108.586 35L103.242 18.936H106.826L110.89 32.664L109.898 32.856L113.802 18.936H116.586L120.458 32.472H119.658L123.722 18.936H127.178L121.802 35H118.634L114.826 22.424L115.434 22.712L111.754 35H108.586ZM133.321 35H129.993V12.856H133.321V35ZM144.468 35.48C142.889 35.48 141.513 35.16 140.34 34.52C139.188 33.88 138.292 32.9307 137.652 31.672C137.033 30.4133 136.724 28.8773 136.724 27.064C136.724 24.2693 137.374 22.1573 138.676 20.728C139.998 19.2773 141.833 18.552 144.18 18.552C145.908 18.552 147.305 18.936 148.372 19.704C149.438 20.472 150.206 21.5493 150.676 22.936C151.166 24.3013 151.401 25.9013 151.38 27.736H138.74L138.644 25.24H148.82L148.02 26.04C147.956 24.3973 147.614 23.2027 146.996 22.456C146.377 21.688 145.406 21.304 144.084 21.304C143.23 21.304 142.505 21.4853 141.908 21.848C141.31 22.1893 140.852 22.7867 140.532 23.64C140.233 24.472 140.084 25.624 140.084 27.096C140.084 28.888 140.5 30.2533 141.332 31.192C142.164 32.1093 143.39 32.568 145.012 32.568C145.737 32.568 146.409 32.504 147.028 32.376C147.668 32.248 148.254 32.088 148.788 31.896C149.321 31.6827 149.78 31.48 150.164 31.288V34.392C149.417 34.712 148.574 34.968 147.636 35.16C146.697 35.3733 145.641 35.48 144.468 35.48ZM160.567 35.48C159.735 35.48 158.935 35.3947 158.167 35.224C157.399 35.0747 156.695 34.808 156.055 34.424C155.436 34.04 154.935 33.5173 154.551 32.856C154.188 32.1733 154.007 31.3307 154.007 30.328C154.007 29.1333 154.242 28.152 154.711 27.384C155.18 26.616 155.852 26.04 156.727 25.656C157.602 25.272 158.647 25.08 159.863 25.08C160.674 25.08 161.399 25.144 162.039 25.272C162.7 25.4 163.287 25.5813 163.799 25.816C164.332 26.0293 164.78 26.2747 165.143 26.552L165.495 28.76C165.026 28.44 164.396 28.1733 163.607 27.96C162.818 27.7253 161.964 27.608 161.047 27.608C159.831 27.608 158.903 27.8213 158.263 28.248C157.644 28.6747 157.335 29.3147 157.335 30.168C157.335 30.808 157.516 31.3307 157.879 31.736C158.242 32.12 158.69 32.408 159.223 32.6C159.778 32.7707 160.354 32.856 160.951 32.856C162.21 32.856 163.138 32.7707 163.735 32.6C164.332 32.4293 164.631 32.0347 164.631 31.416V24.696C164.631 23.5653 164.29 22.744 163.607 22.232C162.924 21.6987 161.954 21.432 160.695 21.432C159.799 21.432 158.871 21.5813 157.911 21.88C156.951 22.1573 156.162 22.552 155.543 23.064V19.928C156.14 19.5227 157.004 19.2027 158.135 18.968C159.287 18.712 160.471 18.584 161.687 18.584C162.284 18.584 162.882 18.648 163.479 18.776C164.098 18.8827 164.674 19.064 165.207 19.32C165.74 19.5547 166.21 19.8853 166.615 20.312C167.042 20.7173 167.372 21.2187 167.607 21.816C167.842 22.4133 167.959 23.1173 167.959 23.928V31.608C167.959 32.6533 167.628 33.464 166.967 34.04C166.327 34.5947 165.452 34.968 164.343 35.16C163.234 35.3733 161.975 35.48 160.567 35.48ZM172.181 35V20.408C172.458 20.2373 172.97 20.0027 173.717 19.704C174.463 19.4053 175.349 19.1493 176.373 18.936C177.397 18.7013 178.431 18.584 179.477 18.584C180.01 18.584 180.447 18.6267 180.789 18.712C181.13 18.7973 181.418 18.8933 181.653 19V21.688C181.162 21.624 180.65 21.5813 180.117 21.56C179.583 21.5173 179.05 21.5173 178.517 21.56C177.983 21.5813 177.461 21.624 176.949 21.688C176.437 21.752 175.967 21.816 175.541 21.88V35H172.181ZM184.462 20.248C184.931 20.0133 185.454 19.8 186.03 19.608C186.627 19.3947 187.256 19.2133 187.918 19.064C188.579 18.9147 189.251 18.7973 189.934 18.712C190.616 18.6267 191.278 18.584 191.918 18.584C193.432 18.584 194.67 18.7973 195.63 19.224C196.59 19.6293 197.304 20.2693 197.774 21.144C198.243 21.9973 198.478 23.0747 198.478 24.376V35H195.118V24.824C195.118 24.4187 195.064 24.024 194.958 23.64C194.872 23.2347 194.691 22.872 194.414 22.552C194.158 22.2107 193.774 21.944 193.262 21.752C192.771 21.56 192.12 21.464 191.31 21.464C190.734 21.464 190.136 21.5173 189.518 21.624C188.92 21.7307 188.355 21.88 187.822 22.072V35H184.462V20.248Z" fill="#313273"/>
</svg>
